<mxfile host="app.diagrams.net" modified="2021-12-01T00:16:57.593Z" agent="5.0 (Macintosh; Intel Mac OS X 10_15_7) AppleWebKit/537.36 (KHTML, like Gecko) Chrome/96.0.4664.45 Safari/537.36" etag="A88VaeLPWVUXFUGRZNEC" version="15.8.8" type="github">
  <diagram id="Wmsrdi1FrFOCYvWS6GG6" name="Page-1">
    <mxGraphModel dx="1795" dy="902" grid="1" gridSize="10" guides="1" tooltips="1" connect="1" arrows="1" fold="1" page="1" pageScale="1" pageWidth="850" pageHeight="1100" math="0" shadow="0">
      <root>
        <mxCell id="0" />
        <mxCell id="1" parent="0" />
      </root>
    </mxGraphModel>
  </diagram>
</mxfile>
